<svg width="20" height="20" viewBox="0 0 20 20" fill="none" xmlns="http://www.w3.org/2000/svg">
<path d="M18.5714 8.34066H4.28571L8.98571 2.85338C9.11961 2.69833 9.22589 2.51386 9.29842 2.31061C9.37094 2.10737 9.40828 1.88937 9.40828 1.66919C9.40828 1.44901 9.37094 1.23101 9.29842 1.02777C9.22589 0.824521 9.11961 0.640054 8.98571 0.485004C8.71805 0.174361 8.35598 0 7.97857 0C7.60116 0 7.23909 0.174361 6.97143 0.485004L0.842857 7.65684C0.306303 8.27954 0.0031897 9.12527 0 10.0085C0.00695227 10.886 0.309778 11.7249 0.842857 12.3435L6.97143 19.5154C7.10463 19.6698 7.26257 19.7921 7.43624 19.8752C7.60992 19.9584 7.79592 20.0008 7.98362 20C8.17133 19.9992 8.35707 19.9553 8.53023 19.8707C8.7034 19.7861 8.8606 19.6625 8.99286 19.507C9.12512 19.3515 9.22985 19.1671 9.30107 18.9644C9.37229 18.7616 9.4086 18.5444 9.40794 18.3253C9.40727 18.1061 9.36965 17.8893 9.2972 17.6871C9.22476 17.485 9.11891 17.3014 8.98571 17.147L4.28571 11.6764H18.5714C18.9503 11.6764 19.3137 11.5007 19.5816 11.1879C19.8495 10.8751 20 10.4509 20 10.0085C20 9.56618 19.8495 9.14196 19.5816 8.82917C19.3137 8.51638 18.9503 8.34066 18.5714 8.34066Z" fill="#AC1717"/>
</svg>
