<svg width="24" height="24" viewBox="0 0 24 24" fill="none" xmlns="http://www.w3.org/2000/svg">
<path d="M9.79998 9.80198C9.04498 10.555 8.67798 11.278 8.67798 12.01C8.67798 12.967 9.31798 13.716 9.79998 14.197C10.54 14.936 11.27 15.305 12 15.305C12.73 15.305 13.46 14.935 14.2 14.197C14.955 13.444 15.322 12.721 15.322 11.989C15.322 11.032 14.682 10.283 14.2 9.80198C12.72 8.32398 11.28 8.32398 9.79998 9.80198ZM13.494 13.49C12.243 14.738 11.452 14.434 10.506 13.49C9.94098 12.926 9.67798 12.456 9.67798 12.011C9.67798 11.557 9.94898 11.067 10.506 10.511C11.089 9.92898 11.571 9.68498 12.017 9.68498C12.528 9.68498 12.989 10.007 13.495 10.511C14.06 11.075 14.323 11.545 14.323 11.99C14.323 12.444 14.051 12.934 13.494 13.49Z" fill="black"/>
<path d="M9.79998 9.80198C9.04498 10.555 8.67798 11.278 8.67798 12.01C8.67798 12.967 9.31798 13.716 9.79998 14.197C10.54 14.936 11.27 15.305 12 15.305C12.73 15.305 13.46 14.935 14.2 14.197C14.955 13.444 15.322 12.721 15.322 11.989C15.322 11.032 14.682 10.283 14.2 9.80198C12.72 8.32398 11.28 8.32398 9.79998 9.80198ZM13.494 13.49C12.243 14.738 11.452 14.434 10.506 13.49C9.94098 12.926 9.67798 12.456 9.67798 12.011C9.67798 11.557 9.94898 11.067 10.506 10.511C11.089 9.92898 11.571 9.68498 12.017 9.68498C12.528 9.68498 12.989 10.007 13.495 10.511C14.06 11.075 14.323 11.545 14.323 11.99C14.323 12.444 14.051 12.934 13.494 13.49Z" fill="#AC1717"/>
<path d="M23.019 11.948C23.027 10.353 22.202 9.46698 20.498 9.24798C20.31 8.85398 20.081 8.46098 19.804 8.05998C21.009 6.60398 21.014 5.36598 19.83 4.18398C18.647 3.00298 17.405 3.00898 15.946 4.21298C15.545 3.93898 15.152 3.71198 14.758 3.52498C14.541 1.81898 13.624 1.00098 12.053 1.00098C10.451 1.00898 9.55797 1.84998 9.32797 3.56998C8.93597 3.75898 8.53697 3.99098 8.13797 4.26098C6.68697 3.06398 5.44397 3.06698 4.24797 4.26098C3.06997 5.43598 3.06797 6.70898 4.24697 8.14298C3.97397 8.54298 3.74097 8.94098 3.55097 9.33198C1.83197 9.56098 0.990968 10.454 0.982968 12.053C0.974968 13.648 1.79997 14.534 3.50397 14.753C3.69197 15.147 3.92097 15.54 4.19797 15.941C2.99297 17.397 2.98797 18.635 4.17197 19.817C5.35597 20.999 6.59697 20.993 8.05597 19.788C8.45697 20.062 8.84997 20.289 9.24397 20.476C9.45997 22.173 10.357 23 11.926 23C13.531 23 14.445 22.151 14.675 20.431C15.067 20.242 15.466 20.01 15.865 19.74C17.316 20.937 18.559 20.933 19.755 19.74C20.933 18.565 20.935 17.292 19.756 15.858C20.029 15.458 20.262 15.06 20.452 14.669C22.171 14.44 23.012 13.547 23.02 11.948H23.019ZM19.659 14.001C19.432 14.516 19.115 15.052 18.717 15.595C18.575 15.788 18.59 16.054 18.753 16.23C20.126 17.717 19.651 18.43 19.048 19.032C18.418 19.66 17.727 20.11 16.236 18.737C16.061 18.575 15.796 18.561 15.602 18.701C15.061 19.096 14.525 19.411 14.007 19.638C13.84 19.711 13.725 19.87 13.71 20.053C13.571 21.668 12.931 21.995 11.944 22C10.936 21.973 10.335 21.696 10.21 20.1C10.195 19.914 10.079 19.752 9.90797 19.679C9.38697 19.457 8.86697 19.153 8.31997 18.75C8.23097 18.685 8.12697 18.653 8.02397 18.653C7.90197 18.653 7.78097 18.697 7.68597 18.785C6.18297 20.168 5.47497 19.704 4.87897 19.109C4.28397 18.515 3.81897 17.81 5.20197 16.312C5.36497 16.135 5.37997 15.868 5.23697 15.675C4.83697 15.134 4.52097 14.6 4.29997 14.087C4.22697 13.917 4.06597 13.801 3.88097 13.786C2.29397 13.66 1.97797 13.031 1.98297 12.057C1.98797 11.073 2.31597 10.435 3.92897 10.296C4.11097 10.28 4.26997 10.167 4.34397 9.99998C4.57097 9.48498 4.88797 8.94898 5.28597 8.40598C5.42797 8.21298 5.41297 7.94698 5.24997 7.77098C3.87697 6.28398 4.35197 5.57098 4.95497 4.96898C5.56097 4.36498 6.27597 3.88898 7.76697 5.26398C7.94297 5.42698 8.20797 5.44198 8.40097 5.29998C8.94197 4.90498 9.47797 4.58998 9.99597 4.36298C10.163 4.28998 10.278 4.13098 10.293 3.94798C10.432 2.33298 11.072 2.00598 12.059 2.00098C13.049 1.97398 13.667 2.30498 13.793 3.90098C13.808 4.08698 13.924 4.24898 14.095 4.32198C14.616 4.54398 15.136 4.84798 15.683 5.25098C15.876 5.39298 16.141 5.37798 16.318 5.21598C17.822 3.83398 18.53 4.29798 19.125 4.89198C19.72 5.48598 20.185 6.19098 18.802 7.68898C18.639 7.86598 18.624 8.13298 18.767 8.32598C19.167 8.86698 19.483 9.40098 19.704 9.91398C19.777 10.084 19.938 10.2 20.123 10.215C21.71 10.341 22.026 10.97 22.021 11.944C22.016 12.928 21.688 13.566 20.075 13.705C19.893 13.721 19.733 13.834 19.659 14.001Z" fill="#AC1717"/>
</svg>
