<svg width="26" height="26" viewBox="0 0 26 26" fill="none" xmlns="http://www.w3.org/2000/svg">
<g clip-path="url(#clip0_194_16)">
<path d="M5.6875 19.5C4.79375 19.5 4.0625 18.7688 4.0625 17.875V8.125C4.0625 7.23125 4.79375 6.5 5.6875 6.5C6.58125 6.5 7.3125 7.23125 7.3125 8.125V17.875C7.3125 18.7688 6.58125 19.5 5.6875 19.5Z" stroke="#81838B" stroke-width="2" stroke-miterlimit="10" stroke-linecap="round" stroke-linejoin="round"/>
<path d="M2.4375 17.0625C1.54375 17.0625 0.8125 16.3313 0.8125 15.4375V10.5625C0.8125 9.66875 1.54375 8.9375 2.4375 8.9375C3.33125 8.9375 4.0625 9.66875 4.0625 10.5625V15.4375C4.0625 16.3313 3.33125 17.0625 2.4375 17.0625Z" stroke="#81838B" stroke-width="2" stroke-miterlimit="10" stroke-linecap="round" stroke-linejoin="round"/>
<path d="M20.3125 6.5C21.2063 6.5 21.9375 7.23125 21.9375 8.125V17.875C21.9375 18.7688 21.2063 19.5 20.3125 19.5C19.4187 19.5 18.6875 18.7688 18.6875 17.875V8.125C18.6875 7.23125 19.4187 6.5 20.3125 6.5Z" stroke="#81838B" stroke-width="2" stroke-miterlimit="10" stroke-linecap="round" stroke-linejoin="round"/>
<path d="M23.5625 8.9375C24.4563 8.9375 25.1875 9.66875 25.1875 10.5625V15.4375C25.1875 16.3313 24.4563 17.0625 23.5625 17.0625C22.6687 17.0625 21.9375 16.3313 21.9375 15.4375V10.5625C21.9375 9.66875 22.6687 8.9375 23.5625 8.9375Z" stroke="#81838B" stroke-width="2" stroke-miterlimit="10" stroke-linecap="round" stroke-linejoin="round"/>
<path d="M7.3125 13H18.6875" stroke="#81838B" stroke-width="2" stroke-miterlimit="10" stroke-linecap="round" stroke-linejoin="round"/>
</g>
<defs>
<clipPath id="clip0_194_16">
<rect width="26" height="26" fill="white"/>
</clipPath>
</defs>
</svg>
