<svg width="15" height="15" viewBox="0 0 15 15" fill="none" xmlns="http://www.w3.org/2000/svg">
<g clip-path="url(#clip0_96_174)">
<path fill-rule="evenodd" clip-rule="evenodd" d="M11.3985 2.64002C11.6308 2.41893 11.9415 2.29919 12.2621 2.30713C12.5827 2.31508 12.8871 2.45006 13.1081 2.68239C13.3292 2.91472 13.449 3.22537 13.441 3.54598C13.4331 3.8666 13.2981 4.17093 13.0658 4.39202L4.75952 12.3158L2.61902 12.597L3.49652 10.143L11.3978 2.64077L11.3985 2.64002ZM14.1923 1.64852C13.6972 1.12894 13.0163 0.827018 12.2989 0.80902C11.5815 0.791021 10.8862 1.05842 10.3658 1.55252L2.33252 9.17852C2.24737 9.25933 2.18237 9.35901 2.14277 9.46952L0.792769 13.2473C0.749526 13.3683 0.738097 13.4984 0.759577 13.625C0.781057 13.7517 0.834725 13.8708 0.915436 13.9708C0.996146 14.0707 1.10119 14.1483 1.2205 14.196C1.3398 14.2437 1.46937 14.26 1.59677 14.2433L5.19677 13.7708C5.35446 13.7502 5.50154 13.6801 5.61677 13.5705L14.1 5.47802C14.6199 4.98228 14.9216 4.30036 14.9387 3.58222C14.9559 2.86408 14.6879 2.16852 14.1923 1.64852ZM9.00002 12.75C8.80111 12.75 8.61034 12.829 8.46969 12.9697C8.32904 13.1103 8.25002 13.3011 8.25002 13.5C8.25002 13.6989 8.32904 13.8897 8.46969 14.0303C8.61034 14.171 8.80111 14.25 9.00002 14.25H13.5C13.6989 14.25 13.8897 14.171 14.0303 14.0303C14.171 13.8897 14.25 13.6989 14.25 13.5C14.25 13.3011 14.171 13.1103 14.0303 12.9697C13.8897 12.829 13.6989 12.75 13.5 12.75H9.00002Z" fill="#AC1717"/>
</g>
<defs>
<clipPath id="clip0_96_174">
<rect width="15" height="15" fill="white"/>
</clipPath>
</defs>
</svg>
