<svg width="20" height="20" viewBox="0 0 20 20" fill="none" xmlns="http://www.w3.org/2000/svg">
<path d="M8.33333 7.49998H14.1667M8.33333 10.8333H14.1667M5.83333 7.49998H5.84167M5.83333 10.8333H5.84167M17.5 16.6666L14.7297 15.2815C14.5197 15.1765 14.4147 15.124 14.3047 15.087C14.207 15.0541 14.1064 15.0304 14.0043 15.0161C13.8893 15 13.7719 15 13.5372 15H5.16667C4.23324 15 3.76653 15 3.41002 14.8183C3.09641 14.6586 2.84144 14.4036 2.68166 14.09C2.5 13.7335 2.5 13.2667 2.5 12.3333V5.99998C2.5 5.06655 2.5 4.59985 2.68166 4.24333C2.84144 3.92972 3.09641 3.67475 3.41002 3.51497C3.76653 3.33331 4.23325 3.33331 5.16667 3.33331H14.8333C15.7667 3.33331 16.2335 3.33331 16.59 3.51497C16.9036 3.67475 17.1586 3.92972 17.3183 4.24333C17.5 4.59985 17.5 5.06656 17.5 5.99998V16.6666Z" stroke="#AC1717" stroke-linecap="round" stroke-linejoin="round"/>
</svg>
